<svg width="32" height="32" viewBox="0 0 32 32" fill="none" xmlns="http://www.w3.org/2000/svg">
<path d="M25.7076 14.7075C25.6147 14.8005 25.5044 14.8742 25.383 14.9246C25.2616 14.9749 25.1315 15.0008 25.0001 15.0008C24.8687 15.0008 24.7385 14.9749 24.6171 14.9246C24.4957 14.8742 24.3854 14.8005 24.2926 14.7075L17.0001 7.41374V27C17.0001 27.2652 16.8947 27.5196 16.7072 27.7071C16.5196 27.8946 16.2653 28 16.0001 28C15.7349 28 15.4805 27.8946 15.293 27.7071C15.1054 27.5196 15.0001 27.2652 15.0001 27V7.41374L7.70757 14.7075C7.51993 14.8951 7.26543 15.0005 7.00007 15.0005C6.7347 15.0005 6.48021 14.8951 6.29257 14.7075C6.10493 14.5199 5.99951 14.2654 5.99951 14C5.99951 13.7346 6.10493 13.4801 6.29257 13.2925L15.2926 4.29249C15.3854 4.19952 15.4957 4.12576 15.6171 4.07543C15.7385 4.02511 15.8687 3.99921 16.0001 3.99921C16.1315 3.99921 16.2616 4.02511 16.383 4.07543C16.5044 4.12576 16.6147 4.19952 16.7076 4.29249L25.7076 13.2925C25.8005 13.3854 25.8743 13.4957 25.9246 13.6171C25.975 13.7385 26.0009 13.8686 26.0009 14C26.0009 14.1314 25.975 14.2615 25.9246 14.3829C25.8743 14.5043 25.8005 14.6146 25.7076 14.7075Z" fill="black"/>
</svg>
