<svg width="32" height="32" viewBox="0 0 32 32" fill="none" xmlns="http://www.w3.org/2000/svg">
<g clip-path="url(#clip0_134_8609)">
<path d="M29 14C29 13.2044 28.6839 12.4413 28.1213 11.8787C27.5587 11.3161 26.7956 11 26 11H17V9.87501C17.8583 9.65206 18.6185 9.15072 19.1613 8.4495C19.7042 7.74829 19.9992 6.88681 20 6.00001C20 2.50001 16.695 0.261259 16.555 0.167509C16.3907 0.0578698 16.1975 -0.000640869 16 -0.000640869C15.8025 -0.000640869 15.6093 0.0578698 15.445 0.167509C15.305 0.261259 12 2.50001 12 6.00001C12.0008 6.88681 12.2958 7.74829 12.8387 8.4495C13.3815 9.15072 14.1417 9.65206 15 9.87501V11H6C5.20435 11 4.44129 11.3161 3.87868 11.8787C3.31607 12.4413 3 13.2044 3 14V16.9163C3.00103 18.0072 3.35148 19.069 4 19.9463V25C4 25.7957 4.31607 26.5587 4.87868 27.1213C5.44129 27.6839 6.20435 28 7 28H25C25.7956 28 26.5587 27.6839 27.1213 27.1213C27.6839 26.5587 28 25.7957 28 25V19.9463C28.6485 19.069 28.999 18.0072 29 16.9163V14ZM14 6.00001C14 4.30376 15.25 2.94251 16 2.27626C16.75 2.94251 18 4.30376 18 6.00001C18 6.53044 17.7893 7.03915 17.4142 7.41422C17.0391 7.7893 16.5304 8.00001 16 8.00001C15.4696 8.00001 14.9609 7.7893 14.5858 7.41422C14.2107 7.03915 14 6.53044 14 6.00001ZM5 14C5 13.7348 5.10536 13.4804 5.29289 13.2929C5.48043 13.1054 5.73478 13 6 13H26C26.2652 13 26.5196 13.1054 26.7071 13.2929C26.8946 13.4804 27 13.7348 27 14V16.9163C27 18.5725 25.6925 19.955 24.085 19.9988C23.684 20.0101 23.2849 19.941 22.9111 19.7954C22.5374 19.6498 22.1966 19.4307 21.909 19.1511C21.6213 18.8716 21.3927 18.5371 21.2366 18.1677C21.0805 17.7982 21 17.4011 21 17C21 16.7348 20.8946 16.4804 20.7071 16.2929C20.5196 16.1054 20.2652 16 20 16C19.7348 16 19.4804 16.1054 19.2929 16.2929C19.1054 16.4804 19 16.7348 19 17C19 17.7957 18.6839 18.5587 18.1213 19.1213C17.5587 19.6839 16.7956 20 16 20C15.2044 20 14.4413 19.6839 13.8787 19.1213C13.3161 18.5587 13 17.7957 13 17C13 16.7348 12.8946 16.4804 12.7071 16.2929C12.5196 16.1054 12.2652 16 12 16C11.7348 16 11.4804 16.1054 11.2929 16.2929C11.1054 16.4804 11 16.7348 11 17C11.0002 17.4012 10.9198 17.7984 10.7638 18.168C10.6077 18.5377 10.3791 18.8722 10.0915 19.152C9.80384 19.4317 9.46302 19.6508 9.08917 19.7965C8.71533 19.9422 8.31606 20.0114 7.915 20C6.3075 19.955 5 18.5725 5 16.9163V14ZM25 26H7C6.73478 26 6.48043 25.8947 6.29289 25.7071C6.10536 25.5196 6 25.2652 6 25V21.57C6.58536 21.8352 7.21762 21.9814 7.86 22C8.52832 22.0208 9.19394 21.9063 9.81688 21.6633C10.4398 21.4204 11.0072 21.054 11.485 20.5863C11.6715 20.4044 11.8437 20.2084 12 20C12.4657 20.621 13.0697 21.125 13.7639 21.4721C14.4582 21.8193 15.2238 22 16 22C16.7762 22 17.5418 21.8193 18.2361 21.4721C18.9303 21.125 19.5343 20.621 20 20C20.1568 20.2076 20.3294 20.4028 20.5163 20.5838C21.4465 21.4949 22.6978 22.0037 24 22C24.0475 22 24.095 22 24.1425 22C24.784 21.9811 25.4154 21.8349 26 21.57V25C26 25.2652 25.8946 25.5196 25.7071 25.7071C25.5196 25.8947 25.2652 26 25 26Z" fill="black"/>
</g>
<defs>
<clipPath id="clip0_134_8609">
<rect width="32" height="32" fill="white"/>
</clipPath>
</defs>
</svg>
