<svg width="32" height="32" viewBox="0 0 32 32" fill="none" xmlns="http://www.w3.org/2000/svg">
<path d="M26.7076 20.7075C26.6147 20.8005 26.5044 20.8742 26.383 20.9246C26.2616 20.9749 26.1315 21.0008 26.0001 21.0008C25.8687 21.0008 25.7385 20.9749 25.6171 20.9246C25.4957 20.8742 25.3854 20.8005 25.2926 20.7075L16.0001 11.4137L6.70757 20.7075C6.51993 20.8951 6.26543 21.0006 6.00007 21.0006C5.7347 21.0006 5.48021 20.8951 5.29257 20.7075C5.10493 20.5199 4.99951 20.2654 4.99951 20C4.99951 19.7346 5.10493 19.4801 5.29257 19.2925L15.2926 9.29249C15.3854 9.19952 15.4957 9.12576 15.6171 9.07543C15.7385 9.02511 15.8687 8.99921 16.0001 8.99921C16.1315 8.99921 16.2616 9.02511 16.383 9.07543C16.5044 9.12576 16.6147 9.19952 16.7076 9.29249L26.7076 19.2925C26.8005 19.3854 26.8743 19.4957 26.9246 19.6171C26.975 19.7385 27.0009 19.8686 27.0009 20C27.0009 20.1314 26.975 20.2615 26.9246 20.3829C26.8743 20.5043 26.8005 20.6146 26.7076 20.7075Z" fill="black"/>
</svg>
