<svg width="32" height="32" viewBox="0 0 32 32" fill="none" xmlns="http://www.w3.org/2000/svg">
<path d="M17.9999 19.71C19.5675 18.7336 20.7745 17.2733 21.4382 15.5498C22.1019 13.8264 22.1863 11.9337 21.6786 10.1581C21.1708 8.38242 20.0986 6.82045 18.624 5.70847C17.1495 4.59649 15.3529 3.995 13.5061 3.995C11.6593 3.995 9.86274 4.59649 8.38822 5.70847C6.91369 6.82045 5.84144 8.38242 5.33369 10.1581C4.82594 11.9337 4.91031 13.8264 5.57405 15.5498C6.23778 17.2733 7.44476 18.7336 9.01238 19.71C6.43113 20.555 4.10863 22.1337 2.24113 24.3562C2.15363 24.4563 2.08695 24.5728 2.045 24.6989C2.00305 24.8251 1.98667 24.9583 1.99681 25.0908C2.00695 25.2233 2.04341 25.3525 2.10406 25.4708C2.16471 25.5891 2.24833 25.6941 2.35003 25.7797C2.45173 25.8653 2.56948 25.9297 2.69638 25.9692C2.82328 26.0088 2.95679 26.0226 3.08911 26.01C3.22143 25.9973 3.34989 25.9584 3.467 25.8955C3.5841 25.8327 3.68749 25.7471 3.77113 25.6437C6.28113 22.6487 9.73863 21 13.4999 21C17.2611 21 20.7186 22.6487 23.2336 25.6437C23.4044 25.847 23.6488 25.974 23.9133 25.997C24.1777 26.02 24.4404 25.937 24.6436 25.7662C24.8469 25.5955 24.9739 25.351 24.9969 25.0866C25.0199 24.8222 24.9369 24.5595 24.7661 24.3562C22.8974 22.1337 20.5749 20.555 17.9999 19.71ZM6.99988 12.5C6.99988 11.2144 7.3811 9.95771 8.09533 8.88879C8.80956 7.81987 9.82472 6.98675 11.0124 6.49478C12.2002 6.00281 13.5071 5.87409 14.768 6.12489C16.0288 6.37569 17.187 6.99476 18.0961 7.9038C19.0051 8.81284 19.6242 9.97103 19.875 11.2319C20.1258 12.4928 19.9971 13.7997 19.5051 14.9874C19.0131 16.1752 18.18 17.1903 17.1111 17.9045C16.0422 18.6188 14.7855 19 13.4999 19C11.7766 18.998 10.1244 18.3126 8.90588 17.094C7.68732 15.8754 7.00186 14.2233 6.99988 12.5ZM30.5311 17.8837L29.9486 17.5475C30.017 17.1857 30.017 16.8143 29.9486 16.4525L30.5311 16.1162C30.7609 15.9836 30.9285 15.7652 30.9972 15.509C31.0659 15.2528 31.03 14.9797 30.8974 14.75C30.7648 14.5203 30.5463 14.3526 30.2901 14.2839C30.0339 14.2152 29.7609 14.2511 29.5311 14.3837L28.9474 14.7212C28.668 14.4816 28.3468 14.2955 27.9999 14.1725V13.5C27.9999 13.2348 27.8945 12.9804 27.707 12.7929C27.5195 12.6054 27.2651 12.5 26.9999 12.5C26.7347 12.5 26.4803 12.6054 26.2928 12.7929C26.1052 12.9804 25.9999 13.2348 25.9999 13.5V14.1725C25.653 14.2955 25.3317 14.4816 25.0524 14.7212L24.4686 14.3837C24.3549 14.3181 24.2293 14.2755 24.0991 14.2583C23.9688 14.2412 23.8365 14.2499 23.7097 14.2839C23.5828 14.3179 23.4639 14.3766 23.3597 14.4566C23.2555 14.5365 23.168 14.6362 23.1024 14.75C23.0367 14.8638 22.9941 14.9893 22.977 15.1196C22.9598 15.2498 22.9685 15.3821 23.0025 15.509C23.0366 15.6358 23.0952 15.7548 23.1752 15.859C23.2552 15.9632 23.3549 16.0506 23.4686 16.1162L24.0511 16.4525C23.9828 16.8143 23.9828 17.1857 24.0511 17.5475L23.4686 17.8837C23.2389 18.0164 23.0712 18.2348 23.0025 18.491C22.9339 18.7472 22.9698 19.0203 23.1024 19.25C23.235 19.4797 23.4534 19.6474 23.7097 19.7161C23.9659 19.7848 24.2389 19.7489 24.4686 19.6162L25.0524 19.2787C25.3317 19.5184 25.653 19.7045 25.9999 19.8275V20.5C25.9999 20.7652 26.1052 21.0196 26.2928 21.2071C26.4803 21.3946 26.7347 21.5 26.9999 21.5C27.2651 21.5 27.5195 21.3946 27.707 21.2071C27.8945 21.0196 27.9999 20.7652 27.9999 20.5V19.8275C28.3468 19.7045 28.668 19.5184 28.9474 19.2787L29.5311 19.6162C29.683 19.7044 29.8556 19.7505 30.0311 19.75C30.2513 19.7501 30.4654 19.6775 30.6401 19.5435C30.8149 19.4094 30.9405 19.2215 30.9975 19.0088C31.0544 18.7961 31.0396 18.5705 30.9553 18.3671C30.871 18.1637 30.7219 17.9938 30.5311 17.8837ZM25.9999 17C25.9999 16.8022 26.0585 16.6089 26.1684 16.4444C26.2783 16.28 26.4345 16.1518 26.6172 16.0761C26.7999 16.0004 27.001 15.9806 27.195 16.0192C27.389 16.0578 27.5671 16.153 27.707 16.2929C27.8468 16.4327 27.9421 16.6109 27.9807 16.8049C28.0193 16.9989 27.9994 17.2 27.9238 17.3827C27.8481 17.5654 27.7199 17.7216 27.5555 17.8315C27.391 17.9413 27.1977 18 26.9999 18C26.7347 18 26.4803 17.8946 26.2928 17.7071C26.1052 17.5196 25.9999 17.2652 25.9999 17Z" fill="black"/>
</svg>
