<svg viewBox="0 0 1120 142" fill="none" xmlns="http://www.w3.org/2000/svg">
<path d="M53.4035 0.539581H69.1083V10.9198C74.1036 10.6156 78.9454 10.9064 83.296 11.8248C64.8412 19.0886 56.3506 37.7552 54.9604 40.8121L54.8747 40.9995C50.365 40.3147 45.4793 39.7454 40.8562 39.7878C36.0921 40.1938 31.4699 40.8978 23.8574 45.1854C22.784 45.944 21.3367 47.1883 19.3701 49.0854C19.2272 48.9826 19.0741 48.8871 18.8738 48.7618C18.7136 48.6617 18.5225 48.5428 18.2821 48.3858C17.195 47.6756 15.6076 46.7143 13.672 45.7543C9.68466 43.776 4.79346 42.0889 0 42.0889V26.8619C8.28839 26.8619 15.7404 29.6759 20.8256 32.1988C22.5895 33.074 24.1378 33.9488 25.4188 34.7261C26.5524 32.3069 28.0478 30.0567 29.8357 27.9821L21.2116 14.449L35.0355 5.47158L42.992 17.9574C46.2688 16.2675 49.7836 14.8653 53.4035 13.7633V0.539581Z" fill="black"/>
<path d="M95.6352 34.6621C89.912 37.315 84.958 41.6759 80.4915 50.0701C80.4915 50.0701 70.5822 45.5385 62.5429 43.1831C68.7129 30.6743 75.8928 23.6361 86.4805 18.7284C96.7225 13.981 108.941 12.7654 123.455 13.267L122.768 31.9495C109.376 31.4866 101.704 31.8491 95.6352 34.6621Z" fill="black"/>
<path d="M27.0222 52.442C-1.49239 77.8757 39.2425 141.46 71.8311 141.46C104.419 141.46 149.293 77.9323 116.64 48.8085C115.887 48.1364 115.227 47.5317 114.614 46.9703C111.916 44.4957 110.119 42.8491 105.139 39.8878C95.1186 39.8878 89.0796 49.9118 86.3305 56.0187C86.1907 56.3289 86.0185 56.6181 85.819 56.8836L79.4812 74.5145L77.1975 82.7132C76.9564 83.579 77.0192 84.5008 77.3762 85.3257L80.0435 91.4907L93.8558 89.8876L94.7612 97.6873L81.7707 99.1954L82.6147 111.57L74.7808 112.104L73.7275 96.6674L70.1696 88.4439C69.0988 85.9696 68.9097 83.2028 69.6329 80.606L69.7011 80.3611L61.7154 83.9725L56.4939 97.1714L49.192 94.283L53.3273 83.8299L40.7223 80.8601L42.5228 73.2169L58.2492 76.9221L72.6053 70.4293L77.4331 56.9998C64.9948 51.1561 39.4523 41.3547 27.0222 52.442Z" fill="black"/>
<path d="M160 129.868L185.061 12.1319H213.318L203.731 57.3762H251.33L260.917 12.1319H289.174L264.113 129.868H235.856L245.611 83.7828H198.012L188.257 129.868H160Z" fill="black"/>
<path d="M283.354 129.868L308.415 12.1319H399.408L394.026 37.1929H331.289L326.748 58.3854H368.124L363.078 82.6054H321.702L316.993 104.807H380.402L375.02 129.868H283.354Z" fill="black"/>
<path d="M382.967 129.868L454.786 12.1319H487.248L509.449 129.868H480.184L475.474 101.443H430.398L413.915 129.868H382.967ZM443.685 78.4006H471.774L465.551 40.725L443.685 78.4006Z" fill="black"/>
<path d="M517.906 129.868L542.967 12.1319H571.224L551.545 104.303H612.432L607.05 129.868H517.906Z" fill="black"/>
<path d="M624.907 129.868L644.586 37.6975H606.742L612.293 12.1319H716.069L710.518 37.6975H673.011L653.332 129.868H624.907Z" fill="black"/>
<path d="M703.676 129.868L728.737 12.1319H756.994L747.407 57.3762H795.006L804.593 12.1319H832.85L807.789 129.868H779.532L789.287 83.7828H741.688L731.933 129.868H703.676Z" fill="black"/>
<path d="M827.03 129.868L852.091 12.1319H880.348L855.287 129.868H827.03Z" fill="black"/>
<path d="M874.499 129.868L899.56 12.1319H991.226L985.844 37.1929H922.434L917.725 59.2264H959.942L954.896 83.4464H912.679L902.756 129.868H874.499Z" fill="black"/>
<path d="M1018.75 129.868L1028 85.8011L996.041 12.1319H1026.15L1046.5 60.4037L1086.7 12.1319H1120L1056.42 86.1375L1047.17 129.868H1018.75Z" fill="black"/>
</svg>
