<svg width="1920" height="832" viewBox="0 0 1920 832" fill="none" xmlns="http://www.w3.org/2000/svg">
<path d="M0 416L29.0667 388.18C58.1333 361.4 116 304.2 174.667 360.62C232.667 416 290.667 582.4 349.333 568.62C407.333 553.8 465.333 361.4 524 249.6C581.867 137.8 640 111.8 698.667 111.02C756.4 111.8 814.667 137.8 873.333 235.82C930.933 332.8 989.333 499.2 1046.67 485.42C1105.47 470.6 1164 278.2 1221.33 235.82C1280 195 1338.67 304.2 1396 319.02C1454.53 332.8 1513.33 249.6 1570.67 291.2C1629.07 332.8 1686.67 499.2 1745.33 540.8C1803.6 582.4 1861.33 499.2 1890.67 457.6L1920 416V832H1890.93C1861.87 832 1804 832 1745.33 832C1687.33 832 1629.33 832 1570.67 832C1512.67 832 1454.67 832 1396 832C1338.13 832 1280 832 1221.33 832C1163.6 832 1105.33 832 1046.67 832C989.067 832 930.667 832 873.333 832C814.533 832 756 832 698.667 832C640 832 581.333 832 524 832C465.467 832 406.667 832 349.333 832C290.933 832 233.333 832 174.667 832C116.4 832 58.6667 832 29.3333 832H0V416Z" fill="url(#paint0_linear_219_2629)"/>
<defs>
<linearGradient id="paint0_linear_219_2629" x1="1920" y1="111.02" x2="-51.8573" y2="637.937" gradientUnits="userSpaceOnUse">
<stop stop-color="#38EF7D"/>
<stop offset="1" stop-color="#11998E"/>
</linearGradient>
</defs>
</svg>
