<svg width="32" height="32" viewBox="0 0 32 32" fill="none" xmlns="http://www.w3.org/2000/svg">
<path d="M29.3124 14.2975L23.6749 19.2175L25.3637 26.5425C25.453 26.9254 25.4275 27.3262 25.2904 27.6947C25.1532 28.0632 24.9104 28.3831 24.5924 28.6144C24.2744 28.8457 23.8953 28.9782 23.5025 28.9951C23.1096 29.0121 22.7205 28.913 22.3837 28.71L15.9949 24.835L9.61993 28.71C9.28314 28.913 8.894 29.0121 8.50115 28.9951C8.1083 28.9782 7.72917 28.8457 7.41117 28.6144C7.09317 28.3831 6.85041 28.0632 6.71324 27.6947C6.57607 27.3262 6.55057 26.9254 6.63993 26.5425L8.32618 19.225L2.68743 14.2975C2.38919 14.0403 2.17353 13.7007 2.0675 13.3214C1.96147 12.9421 1.96978 12.54 2.0914 12.1654C2.21301 11.7908 2.44251 11.4604 2.75113 11.2158C3.05974 10.9711 3.43372 10.823 3.82618 10.79L11.2587 10.1462L14.1599 3.22624C14.3114 2.86314 14.567 2.55298 14.8944 2.33482C15.2218 2.11665 15.6065 2.00024 15.9999 2.00024C16.3934 2.00024 16.778 2.11665 17.1054 2.33482C17.4329 2.55298 17.6884 2.86314 17.8399 3.22624L20.7499 10.1462L28.1799 10.79C28.5724 10.823 28.9464 10.9711 29.255 11.2158C29.5636 11.4604 29.7931 11.7908 29.9147 12.1654C30.0363 12.54 30.0446 12.9421 29.9386 13.3214C29.8326 13.7007 29.6169 14.0403 29.3187 14.2975H29.3124Z" fill="black"/>
</svg>
