<svg width="960" height="118" viewBox="0 0 960 118" fill="none" xmlns="http://www.w3.org/2000/svg">
<path d="M0 117.868L25.061 0.131866H53.3177L43.7306 45.3762H91.3297L100.917 0.131866H129.174L104.113 117.868H75.8558L85.6111 71.7828H38.012L28.2567 117.868H0Z" fill="#539165"/>
<path d="M123.354 117.868L148.415 0.131866H239.408L234.026 25.1929H171.289L166.748 46.3854H208.124L203.078 70.6054H161.702L156.993 92.8071H220.402L215.02 117.868H123.354Z" fill="#539165"/>
<path d="M222.967 117.868L294.786 0.131866H327.248L349.449 117.868H320.184L315.474 89.4432H270.398L253.915 117.868H222.967ZM283.685 66.4006H311.774L305.551 28.725L283.685 66.4006Z" fill="#539165"/>
<path d="M357.906 117.868L382.967 0.131866H411.224L391.545 92.3026H452.432L447.05 117.868H357.906Z" fill="#539165"/>
<path d="M464.907 117.868L484.586 25.6975H446.742L452.293 0.131866H556.069L550.518 25.6975H513.011L493.332 117.868H464.907Z" fill="#539165"/>
<path d="M543.676 117.868L568.737 0.131866H596.994L587.407 45.3762H635.006L644.593 0.131866H672.85L647.789 117.868H619.532L629.287 71.7828H581.688L571.933 117.868H543.676Z" fill="#539165"/>
<path d="M667.03 117.868L692.091 0.131866H720.348L695.287 117.868H667.03Z" fill="#539165"/>
<path d="M714.499 117.868L739.56 0.131866H831.226L825.844 25.1929H762.434L757.725 47.2264H799.942L794.896 71.4464H752.679L742.756 117.868H714.499Z" fill="#539165"/>
<path d="M858.747 117.868L867.997 73.8011L836.041 0.131866H866.147L886.499 48.4037L926.697 0.131866H960L896.422 74.1375L887.172 117.868H858.747Z" fill="#539165"/>
</svg>
